# xmcd
#
# Track frame offsets:
#	150
#	29973
#	61907
#	91615
#	124070
#	157998
#	209310
#	256635
#	299724
#
# Disc length: 4799 seconds
#
# Revision: 2
# Processed by: cddbd v1.5.2PL0 Copyright (c) Steve Scherf et al.
# Submitted via: EZCDAudioConverter 2.4.0.1
#
DISCID=7c12bd09
DTITLE=Various Artist - Akella Presents - vol.92 - Long Time Blues   CD1
DYEAR=2016
DGENRE=Blues
TTITLE0=Mike Flanigin and Billy Gibbons - The Drifter
TTITLE1=Tinsley Ellis - Kiss Of Death
TTITLE2=Laurence Jones - Thunder In The Sky
TTITLE3=Crooked Eye Tommy - Over And Over
TTITLE4=Eric Gales - You Ain't The Boss Of Me
TTITLE5=Alex Jenkins and The Bombers - Conversation with Alex
TTITLE6=Twelve Bar Blues Band - Me And The Devil Blues
TTITLE7=Joe Bonamassa - Tea for One
TTITLE8=Davy Knowles and Back Door Slam - Almost Cut My Hair
EXTD=
EXTT0=
EXTT1=
EXTT2=
EXTT3=
EXTT4=
EXTT5=
EXTT6=
EXTT7=
EXTT8=
PLAYORDER=
